<?xml version="1.0" encoding="utf-8"?>
<!-- Generator: Adobe Illustrator 18.1.1, SVG Export Plug-In . SVG Version: 6.00 Build 0)  -->
<svg version="1.1" id="Layer_1" xmlns="http://www.w3.org/2000/svg" xmlns:xlink="http://www.w3.org/1999/xlink" x="0px" y="0px"
	 viewBox="0 0 89.8 34" enable-background="new 0 0 89.8 34" xml:space="preserve">
<g>
	<defs>
		<rect id="SVGID_1_" width="89.8" height="34"/>
	</defs>
	<clipPath id="SVGID_2_">
		<use xlink:href="#SVGID_1_"  overflow="visible"/>
	</clipPath>
	<path clip-path="url(#SVGID_2_)" fill="#747474" d="M88.5,9.4h-1.3c-0.4-2.3-1.1-4.2-2.5-5.6C81.8,0.7,76.4,0,69.2,0H20.7
		C13.5,0,8.1,0.6,5.2,3.8C3.9,5.2,3.1,7.1,2.7,9.4H1.5C0.7,9.4,0,10.1,0,10.9c0,0.8,0.7,1.5,1.5,1.5h1c0,0.1,0,4.3,0.1,5.9
		C3.2,27.8,10.3,34,20.7,34c9,0,15-5,18.1-15.4l0.4-1.4c0.4-1.5,1.8-2.5,3.3-2.5h4.8c1.5,0,2.9,1,3.3,2.5l0.4,1.4
		C54.1,28.9,60,34,69.1,34c10.4,0,17.5-6.2,18.1-15.7c0.1-1.6,0.1-5.8,0.1-5.9h1c0.8,0,1.5-0.7,1.5-1.5C89.8,10.1,89.3,9.4,88.5,9.4
		 M36,17.7C33.3,26.8,28.4,31,20.7,31C11.8,31,6,26,5.5,18.1c-0.1-0.7-0.1-1.3-0.1-1.9l0,0V11l0.1-0.6l0,0c0.2-2,0.8-3.5,1.8-4.5
		C9.2,3.8,13.1,3,20.7,3C28,3,34.2,3.2,36.4,6.1C37.9,8.1,37.8,11.8,36,17.7 M51.3,4.3c-1.4,1.8-1.9,4.2-1.6,7.4h-9.4
		c0.3-3.2-0.2-5.6-1.5-7.4c-0.4-0.5-0.8-1-1.3-1.4h15.1C52.1,3.3,51.7,3.7,51.3,4.3 M84.6,15.9L84.6,15.9c-0.1,0.7-0.1,1.4-0.1,2.2
		C84,26.1,78.1,31,69.3,31c-7.7,0-12.5-4.2-15.3-13.3c-1.8-5.9-1.9-9.6-0.4-11.7c2.1-2.9,8.3-3.1,15.7-3.1c7.6,0,11.5,0.8,13.4,2.8
		c0.8,0.9,1.3,2.1,1.6,3.6h0l0,0c0.2,0.8,0.2,1.6,0.3,2.6V15.9z"/>
</g>
</svg>
