<?xml version="1.0" encoding="utf-8"?>
<!-- Generator: Adobe Illustrator 18.1.1, SVG Export Plug-In . SVG Version: 6.00 Build 0)  -->
<svg version="1.1" id="Layer_1" xmlns="http://www.w3.org/2000/svg" xmlns:xlink="http://www.w3.org/1999/xlink" x="0px" y="0px"
	 viewBox="0 0 86.6 25.7" enable-background="new 0 0 86.6 25.7" xml:space="preserve">
<g>
	<defs>
		<rect id="SVGID_1_" y="0" width="86.6" height="25.7"/>
	</defs>
	<clipPath id="SVGID_2_">
		<use xlink:href="#SVGID_1_"  overflow="visible"/>
	</clipPath>
	<path clip-path="url(#SVGID_2_)" fill="#747474" d="M82.9,0.6C59.4-1.7,50.4,4.5,49,6c-1.1,1.1-3.3,1.6-5.7,1.7
		C41,7.6,38.7,7,37.7,6C36.2,4.5,27.2-1.7,3.7,0.6c-1.9,0.2-6-3.8-2.2,7c8.1,23,27.1,19.2,32.5,14.8c6.7-5.4,6.7-10.4,9.3-10.9
		c2.6,0.5,2.6,5.5,9.3,10.9C58,26.8,77,30.6,85.1,7.6C88.9-3.3,84.8,0.8,82.9,0.6 M38.8,14.3c-2.4,4.7-10.6,14-21.6,8.5
		C12.5,20.5,6.3,12.5,9.8,4.9C12.9-1.9,43.3,5.2,38.8,14.3 M69.5,22.8c-11,5.4-19.3-3.8-21.6-8.5c-4.5-9.1,25.8-16.2,29-9.3
		C80.4,12.5,74.1,20.5,69.5,22.8"/>
</g>
</svg>
