<?xml version="1.0" encoding="utf-8"?>
<!-- Generator: Adobe Illustrator 18.1.1, SVG Export Plug-In . SVG Version: 6.00 Build 0)  -->
<svg version="1.1" id="Layer_1" xmlns="http://www.w3.org/2000/svg" xmlns:xlink="http://www.w3.org/1999/xlink" x="0px" y="0px"
	 viewBox="0 0 87.7 29.4" enable-background="new 0 0 87.7 29.4" xml:space="preserve">
<g>
	<defs>
		<rect id="SVGID_1_" y="0" width="87.7" height="29.4"/>
	</defs>
	<clipPath id="SVGID_2_">
		<use xlink:href="#SVGID_1_"  overflow="visible"/>
	</clipPath>
	<path clip-path="url(#SVGID_2_)" fill="#747474" d="M87.5,3.1c0-0.1,0-0.1,0-0.2c-0.1-1.1-0.2-1.3-1.4-1.4c-3.3-0.2-6.6-0.8-10-1.1
		c-1.5-0.1-2.9-0.3-4.4-0.4c-2.3-0.1-4.5,0-6.8,0c-1.7,0-3.4,0.3-5.1,0.5c-1.8,0.2-3.6,0.7-5.4,0.9c-1.3,0.2-2.6,0.6-3.9,0.9
		c-2.2,0.5-4.5,0.8-6.8,0.9c-2.3-0.1-4.5-0.3-6.8-0.9c-1.3-0.3-2.6-0.7-3.9-0.9c-1.8-0.3-3.6-0.7-5.4-0.9c-1.7-0.2-3.4-0.4-5.1-0.5
		c-2.3,0-4.5-0.2-6.8,0c-1.5,0.1-2.9,0.3-4.4,0.4c-3.3,0.3-6.6,0.9-10,1.1C0.4,1.7,0.3,1.8,0.2,2.9c0,0.1,0,0.1,0,0.2
		C0,4.4-0.1,5.8,0,7.1c0,0.5,0.3,0.8,0.7,0.9c1.1,0.3,1.7,1,2,2.1C3,11.4,3.3,12.7,3.5,14c0.4,2.7,1.1,5.4,2.1,7.9
		c1.1,2.7,3,4.7,5.7,5.8c2.2,0.9,4.6,1.4,7,1.6c2.6,0.2,5.1,0,7.6-0.5c3.1-0.6,5.8-1.9,8-3.9c2.6-2.4,4.1-5.3,5.4-8.5
		c0.6-1.5,1.1-3,1.6-4.4c0.5-1.3,1.4-2.3,2.9-2.5c1.4,0.2,2.4,1.2,2.9,2.5c0.5,1.5,1,3,1.6,4.4c1.3,3.1,2.9,6.1,5.4,8.5
		c2.3,2.1,5,3.4,8,3.9c2.5,0.5,5.1,0.7,7.6,0.5c2.4-0.2,4.7-0.7,7-1.6c2.8-1.1,4.6-3.1,5.7-5.8c1.1-2.6,1.7-5.2,2.1-7.9
		c0.2-1.3,0.4-2.6,0.7-3.9c0.2-1.1,0.9-1.8,2-2.1c0.5-0.1,0.7-0.4,0.7-0.9C87.7,5.8,87.6,4.4,87.5,3.1 M37.4,13.9
		c-0.6,2.8-1.7,5.4-3.4,7.7c-2.3,3.1-5.4,4.8-9.2,5.6c-1.5,0.3-3.1,0.4-4.7,0.5c-1.3,0.1-2.7,0-3.9-0.2c-1.7-0.3-3.2-1-4.7-1.7
		c-2.7-1.3-3.9-3.6-4.5-6.3c-0.7-3-1-6.1-0.8-9.2c0.1-1.5,0.4-3.1,0.9-4.5c0.4-1,1.3-1.6,2.3-2.1c1.9-0.9,3.9-1.3,5.9-1.6
		c2-0.3,4.1-0.4,5.9-0.4c4,0,7.6,0.4,11.1,1.6C34,4,35.6,4.7,36.8,6.1c0.7,0.8,0.9,1.7,1.1,2.7C38.1,10.6,37.7,12.2,37.4,13.9
		 M80.7,19.6c-0.6,2.7-1.8,5-4.5,6.3c-1.5,0.7-3,1.4-4.7,1.7c-1.3,0.2-2.6,0.3-4,0.2c-1.6-0.1-3.1-0.2-4.7-0.5
		c-3.8-0.8-7-2.5-9.2-5.6c-1.7-2.4-2.8-4.9-3.4-7.7c-0.4-1.7-0.7-3.4-0.5-5.1c0.1-1,0.4-1.9,1.1-2.7c1.2-1.4,2.7-2.1,4.4-2.7
		c3.5-1.2,7.2-1.6,11.1-1.6c1.8,0,3.9,0.1,5.9,0.4c2,0.3,4,0.7,5.9,1.6c1,0.5,1.9,1,2.3,2.1c0.6,1.4,0.9,3,0.9,4.5
		C81.7,13.5,81.4,16.6,80.7,19.6"/>
</g>
</svg>
