<?xml version="1.0" encoding="utf-8"?>
<!-- Generator: Adobe Illustrator 18.1.1, SVG Export Plug-In . SVG Version: 6.00 Build 0)  -->
<svg version="1.1" id="Layer_1" xmlns="http://www.w3.org/2000/svg" xmlns:xlink="http://www.w3.org/1999/xlink" x="0px" y="0px"
	 viewBox="0 0 80 33.1" enable-background="new 0 0 80 33.1" xml:space="preserve">
<g>
	<defs>
		<rect id="SVGID_1_" y="0" width="80" height="33.1"/>
	</defs>
	<clipPath id="SVGID_2_">
		<use xlink:href="#SVGID_1_"  overflow="visible"/>
	</clipPath>
	<path clip-path="url(#SVGID_2_)" fill="#747474" d="M77.6,10.4c-2-1.1-3.4-3.3-5.1-4.9c-9.2-8.6-20.9-7-27.3,3.8
		c-1.2,2-3.1,2.9-4.9,2.8c-0.1,0-0.3,0-0.4,0c-0.1,0-0.3,0-0.4,0c-1.8,0.1-3.7-0.8-4.9-2.8C28.3-1.5,16.6-3.1,7.5,5.5
		c-1.7,1.6-3.1,3.7-5.1,4.9C-0.4,12-0.5,14,0.9,16.1c0.9,1,2.3,1.9,2.6,3c1.4,7.2,7,14.4,17.5,14c6.5-0.3,13.5-5,15.1-13.5
		c0.4-2.4,1.3-2.9,3.5-2.9c0,0,0.1,0,0.1,0c0,0,0.1,0,0.1,0c0.1,0,0.2,0,0.3,0c0.1,0,0.2,0,0.3,0c0,0,0.1,0,0.1,0c0,0,0.1,0,0.1,0
		c2.2,0,3,0.5,3.5,2.9c1.5,8.5,8.6,13.2,15.1,13.5c10.4,0.4,16-6.8,17.5-14c0.2-1.1,1.7-2,2.6-3C80.5,14,80.4,12,77.6,10.4 M19.7,31
		c-7.3,0.3-14.1-6.4-14.3-14.1c-0.2-7.8,6.1-14.5,14-14.9c7.8-0.3,14.6,6,14.9,13.9C34.6,24.3,28.5,30.6,19.7,31 M60.3,31
		c-8.8-0.4-14.9-6.8-14.6-15.1C46,8.1,52.8,1.7,60.6,2.1c7.9,0.4,14.2,7.1,14,14.9C74.4,24.7,67.6,31.4,60.3,31"/>
</g>
</svg>
