<?xml version="1.0" encoding="utf-8"?>
<!-- Generator: Adobe Illustrator 18.1.1, SVG Export Plug-In . SVG Version: 6.00 Build 0)  -->
<svg version="1.1" id="Layer_1" xmlns="http://www.w3.org/2000/svg" xmlns:xlink="http://www.w3.org/1999/xlink" x="0px" y="0px"
	 viewBox="0 0 22.5 12.4" enable-background="new 0 0 22.5 12.4" xml:space="preserve">
<g>
	<defs>
		<rect id="SVGID_1_" y="0" width="22.5" height="12.4"/>
	</defs>
	<clipPath id="SVGID_2_">
		<use xlink:href="#SVGID_1_"  overflow="visible"/>
	</clipPath>
	<path clip-path="url(#SVGID_2_)" fill="#747474" d="M4.9,12.4L4.9,12.4c-3,0-4.9-2.9-4.9-7.5V0.9c0-0.2,0-0.4,0.1-0.6L0.2,0h22
		l0.1,0.3c0.1,0.2,0.1,0.4,0.1,0.6v4.1c0,4.6-1.9,7.5-4.9,7.5c-1.4,0-2.6-0.3-3.6-0.8l-0.1-0.1c-0.3-0.3-0.6-0.7-1-1.3l-1.6-3.5
		l-1.6,3.4c-0.2,0.3-0.7,1.3-1.4,1.6l-0.1,0.1C7.2,12.2,6.2,12.4,4.9,12.4 M1,1v3.9c0,3.1,1,6.5,3.9,6.5h0c1.1,0,2-0.2,2.8-0.5
		c0.4-0.2,0.8-0.8,1-1.2l1.8-4h1.2l1.8,4c0.3,0.4,0.5,0.8,0.8,1c0.6,0.3,1.5,0.6,3.1,0.6c2.9,0,3.9-3.4,3.9-6.5V1H1z"/>
</g>
</svg>
