<?xml version="1.0" encoding="utf-8"?>
<!-- Generator: Adobe Illustrator 18.1.1, SVG Export Plug-In . SVG Version: 6.00 Build 0)  -->
<svg version="1.1" id="Layer_1" xmlns="http://www.w3.org/2000/svg" xmlns:xlink="http://www.w3.org/1999/xlink" x="0px" y="0px"
	 viewBox="0 0 88.9 28.7" enable-background="new 0 0 88.9 28.7" xml:space="preserve">
<g>
	<defs>
		<rect id="SVGID_1_" y="0" width="88.9" height="28.7"/>
	</defs>
	<clipPath id="SVGID_2_">
		<use xlink:href="#SVGID_1_"  overflow="visible"/>
	</clipPath>
	<path clip-path="url(#SVGID_2_)" fill="#747474" d="M88.5,1.9C88-0.8,81,0.2,79.5,0.1C78,0,55.5,0.1,52.3,1.6c-1,0.5-2,1.4-2.9,2.4
		c-0.8,0.9-1.3,2-2.7,2h-4.7c-1.4,0-1.9-1.1-2.7-2C38.6,3,37.6,2,36.6,1.6C33.4,0.1,10.8,0,9.3,0.1C7.8,0.2,0.9-0.8,0.4,1.9
		C0,4.1,0,4.9,0,7c0,0,1.1,13.3,3.1,16.8c1.8,3,3.6,3.6,7,4.1c3.4,0.5,19.3,0.8,20.1,0.7c0.8-0.1,2.8,0.7,4.8-2.1
		c2-2.8,5.8-13.4,6.6-14.5c0.8-1.1,0.4-1.1,2.1-1.2c0.2,0,1,0,1.2,0c1.7,0.1,1.3,0.1,2.1,1.2c0.8,1.1,4.6,11.7,6.6,14.5
		c2,2.8,4,2,4.8,2.1c0.8,0.1,16.8-0.2,20.1-0.7c3.4-0.5,5.2-1.1,7-4.1C87.8,20.3,88.9,7,88.9,7C88.9,4.9,88.9,4.1,88.5,1.9
		 M36.8,15.4c-0.7,3.8-2.7,9.1-4.9,10c-2.3,0.8-12.5,0.7-19.5,0.2c-4.6-0.4-6.2-1.2-7.7-3.7C3.4,19.4,3,13,3.1,8.7
		C3.2,6.4,3.7,4.7,5,4c1.3-0.7,13.5-1.4,17.3-1.2C26.9,3,36.1,3.9,37.5,6.3C38.7,8.4,37.4,11.9,36.8,15.4 M84.1,21.8
		c-1.5,2.6-3.1,3.4-7.7,3.7c-6.9,0.5-17.2,0.7-19.5-0.2c-2.3-0.8-4.3-6.2-4.9-10c-0.6-3.5-1.9-7-0.7-9.1C52.8,3.9,62,3,66.5,2.8
		c3.8-0.2,16,0.5,17.3,1.2c1.3,0.7,1.8,2.4,1.9,4.7C85.9,13,85.5,19.4,84.1,21.8"/>
</g>
</svg>
