<?xml version="1.0" encoding="utf-8"?>
<!-- Generator: Adobe Illustrator 18.1.1, SVG Export Plug-In . SVG Version: 6.00 Build 0)  -->
<svg version="1.1" id="Layer_1" xmlns="http://www.w3.org/2000/svg" xmlns:xlink="http://www.w3.org/1999/xlink" x="0px" y="0px"
	 viewBox="0 77 612 639" enable-background="new 0 77 612 639" xml:space="preserve">
<g>
	<g>
		<defs>
			<rect id="SVGID_1_" y="90" width="612" height="612"/>
		</defs>
		<clipPath id="SVGID_2_">
			<use xlink:href="#SVGID_1_"  overflow="visible"/>
		</clipPath>
		<path clip-path="url(#SVGID_2_)" fill="#1393EC" d="M306,702C137.7,702,0,564.3,0,396S137.7,90,306,90s306,137.7,306,306
			S474.3,702,306,702 M306,151.2C171.4,151.2,61.2,261.4,61.2,396S171.4,640.8,306,640.8S550.8,530.6,550.8,396
			S440.6,151.2,306,151.2"/>
	</g>
	<g>
		<defs>
			<rect id="SVGID_3_" y="90" width="612" height="612"/>
		</defs>
		<clipPath id="SVGID_4_">
			<use xlink:href="#SVGID_3_"  overflow="visible"/>
		</clipPath>
		<path clip-path="url(#SVGID_4_)" fill="#1393EC" d="M275.4,518.4c-9.2,0-15.3-3.1-21.4-9.2l-91.8-91.8
			c-12.2-12.2-12.2-30.6,0-42.8s30.6-12.2,42.8,0l67.3,67.3l131.6-159.1c12.2-12.2,30.6-15.3,42.8-3.1c12.2,12.2,15.3,30.6,3.1,42.8
			l-153,183.6C293.8,515.3,284.6,518.4,275.4,518.4"/>
	</g>
</g>
</svg>
