<?xml version="1.0" encoding="utf-8"?>
<!-- Generator: Adobe Illustrator 18.1.1, SVG Export Plug-In . SVG Version: 6.00 Build 0)  -->
<svg version="1.1" id="Layer_1" xmlns="http://www.w3.org/2000/svg" xmlns:xlink="http://www.w3.org/1999/xlink" x="0px" y="0px"
	 viewBox="0 0 55 68.9" enable-background="new 0 0 55 68.9" xml:space="preserve">
<g>
	<defs>
		<rect id="SVGID_1_" y="0" width="55" height="68.9"/>
	</defs>
	<clipPath id="SVGID_2_">
		<use xlink:href="#SVGID_1_"  overflow="visible"/>
	</clipPath>
	<path clip-path="url(#SVGID_2_)" d="M51,15.1c-0.1-0.9-0.8-1.6-1.7-1.6H41C41,6.1,34.9,0,27.5,0S14,6,14,13.5H5.7
		c-0.9,0-1.6,0.7-1.7,1.6L0,59.7v0.2c0,5,4.6,9,10.2,9h34.6c5.6,0,10.2-4,10.2-9v-0.2L51,15.1z M27.5,3.5c5.5,0,10,4.5,10,10h-20
		C17.5,8,22,3.5,27.5,3.5 M44.8,65.5H10.2c-3.7,0-6.7-2.5-6.8-5.5l3.8-43H14v6c0,0.9,0.8,1.7,1.7,1.7s1.7-0.8,1.7-1.7v-6h20.1v6
		c0,0.9,0.8,1.7,1.7,1.7c0.9,0,1.7-0.8,1.7-1.7v-6h6.8l3.8,43C51.5,63,48.5,65.5,44.8,65.5"/>
</g>
</svg>
