<?xml version="1.0" encoding="utf-8"?>
<!-- Generator: Adobe Illustrator 18.1.1, SVG Export Plug-In . SVG Version: 6.00 Build 0)  -->
<svg version="1.1" id="Layer_1" xmlns="http://www.w3.org/2000/svg" xmlns:xlink="http://www.w3.org/1999/xlink" x="0px" y="0px"
	 viewBox="0 0 78 88" enable-background="new 0 0 78 88" xml:space="preserve">
<g>
	<defs>
		<rect id="SVGID_1_" width="78" height="88"/>
	</defs>
	<clipPath id="SVGID_2_">
		<use xlink:href="#SVGID_1_"  overflow="visible"/>
	</clipPath>
	<path fill="#252525" clip-path="url(#SVGID_2_)" d="M78,83.6l-9-64c-0.3-1.5-0.9-2.8-1.8-3.8c-1-1.1-2.6-1.8-4.1-1.8h-7.3l-0.2-0.8
		C53.8,5.6,46.8,0,39,0S24.2,5.6,22.4,13.2L22.3,14H15c-1.5,0-3.1,0.7-4.1,1.8c-0.9,1-1.5,2.3-1.8,3.8l0,0.1L0,83.6
		c0,0.1,0,0.2,0,0.3C0,86.1,1.9,88,4.1,88h69.8c2.2,0,4.1-1.9,4.1-4.1C78,83.8,78,83.7,78,83.6 M26.7,12.7C28.5,7.5,33.5,4,39,4
		s10.5,3.5,12.3,8.7l0.5,1.3H26.3L26.7,12.7z M4,84l8.9-63.4l0,0l0-0.2c0.2-0.7,0.5-1.4,0.8-1.8c0.4-0.4,0.7-0.5,1.2-0.5h7v10
		c0,0.5,0.2,1.1,0.6,1.4c0.4,0.4,0.9,0.6,1.4,0.6c0,0,0,0,0,0c1.1,0,2-0.9,2-2V18h26v10c0,0.5,0.2,1.1,0.6,1.4
		c0.4,0.4,0.9,0.6,1.4,0.6c0.5,0,1-0.2,1.4-0.6c0.4-0.4,0.6-0.9,0.6-1.4V18h7c0.5,0,0.8,0.1,1.2,0.5c0.4,0.4,0.7,1.1,0.9,1.8l0,0.2
		L74,84H4z"/>
</g>
</svg>
