<?xml version="1.0" encoding="utf-8"?>
<!-- Generator: Adobe Illustrator 18.1.1, SVG Export Plug-In . SVG Version: 6.00 Build 0)  -->
<svg version="1.1" id="Layer_1" xmlns="http://www.w3.org/2000/svg" xmlns:xlink="http://www.w3.org/1999/xlink" x="0px" y="0px"
	 viewBox="0 0 74.9 90.2" enable-background="new 0 0 74.9 90.2" xml:space="preserve">
<g>
	<defs>
		<rect id="SVGID_1_" width="74.9" height="90.2"/>
	</defs>
	<clipPath id="SVGID_2_">
		<use xlink:href="#SVGID_1_"  overflow="visible"/>
	</clipPath>
	<path fill="#0DAC49" clip-path="url(#SVGID_2_)" d="M69.2,0.8c-1-1-2.6-1-3.5,0l-3.3,3.3l-3.2-3.2c-1-1-2.6-1-3.5,0l-3.3,3.2l-3.2-3.2
		c-0.9-0.9-2.6-0.9-3.5,0l-3.3,3.2l-3.2-3.2c-1-1-2.6-1-3.5,0l-3.3,3.2l-3.2-3.2c-0.5-0.5-1.1-0.8-1.8-0.8s-1.3,0.3-1.8,0.7
		l-3.2,3.3l-3.2-3.2c-1-1-2.6-1-3.5,0l-3.3,3.2L9.2,0.9c-1-1-2.6-1-3.5,0l-5,5C0.2,6.4,0,7,0,7.7v75c0,0.7,0.3,1.3,0.7,1.8l5,5
		c1,1,2.6,1,3.5,0l3.2-3.4l3.2,3.2c1,1,2.6,1,3.5,0l3.3-3.2l3.2,3.2c0.9,0.9,2.6,0.9,3.5,0l3.3-3.2l3.2,3.2c1,1,2.6,1,3.5,0l3.3-3.2
		l3.2,3.2c0.5,0.5,1.1,0.7,1.8,0.7s1.3-0.3,1.8-0.7l3.2-3.2l3.2,3.2c1,1,2.6,1,3.5,0l3.3-3.2l3.2,3.2c0.5,0.5,1.1,0.7,1.8,0.7
		c0.7,0,1.3-0.2,1.8-0.7l5-5c0.5-0.5,0.7-1.1,0.7-1.8v-75c0-0.7-0.3-1.3-0.7-1.8L69.2,0.8z M69.9,81.5L67.4,84l-3.2-3.2
		C63.7,80.3,63,80,62.4,80c-0.6,0-1.3,0.2-1.8,0.7L57.4,84l-3.2-3.2c-1-1-2.6-1-3.5,0L47.4,84l-3.2-3.2c-0.5-0.5-1.1-0.8-1.8-0.8
		s-1.3,0.3-1.8,0.7L37.4,84l-3.2-3.2c-0.9-0.9-2.6-0.9-3.5,0L27.4,84l-3.2-3.2c-1-1-2.6-1-3.5,0L17.4,84l-3.2-3.2c-1-1-2.6-1-3.5,0
		L7.4,84l-2.5-2.5v-73l2.5-2.5l3.2,3.2c1,1,2.6,1,3.5,0l3.3-3.2l3.2,3.2c1,1,2.6,1,3.5,0l3.3-3.2l3.2,3.2c0.5,0.5,1.1,0.7,1.8,0.7
		s1.3-0.3,1.8-0.7l3.2-3.2l3.2,3.2c0.9,0.9,2.6,0.9,3.5,0l3.3-3.2l3.2,3.2c1,1,2.6,1,3.5,0l3.3-3.2l3.2,3.2c1,1,2.6,1,3.5,0l3.3-3.2
		l2.5,2.5V81.5z"/>
	<path fill="#0DAC49" clip-path="url(#SVGID_2_)" d="M53.1,25.8l-35,35c-1,1-1,2.6,0,3.5c0.5,0.5,1.1,0.7,1.8,0.7s1.3-0.2,1.8-0.7l35-35
		c1-1,1-2.6,0-3.5C55.7,24.9,54.1,24.9,53.1,25.8"/>
	<path fill="#0DAC49" clip-path="url(#SVGID_2_)" d="M26.2,42.5c4.8,0,8.8-3.9,8.8-8.8S31,25,26.2,25s-8.8,3.9-8.8,8.8S21.3,42.5,26.2,42.5
		 M26.2,30c2.1,0,3.8,1.7,3.8,3.8c0,2.1-1.7,3.8-3.8,3.8s-3.8-1.8-3.8-3.8S24.1,30,26.2,30"/>
	<path fill="#0DAC49" clip-path="url(#SVGID_2_)" d="M48.7,47.5c-4.8,0-8.8,3.9-8.8,8.8s3.9,8.8,8.8,8.8s8.8-3.9,8.8-8.8S53.5,47.5,48.7,47.5
		 M48.7,60c-2.1,0-3.8-1.7-3.8-3.8c0-2.1,1.7-3.8,3.8-3.8c2.1,0,3.8,1.7,3.8,3.8C52.5,58.3,50.7,60,48.7,60"/>
</g>
</svg>
