<?xml version="1.0" encoding="utf-8"?>
<!-- Generator: Adobe Illustrator 18.1.1, SVG Export Plug-In . SVG Version: 6.00 Build 0)  -->
<svg version="1.1" id="Layer_1" xmlns="http://www.w3.org/2000/svg" xmlns:xlink="http://www.w3.org/1999/xlink" x="0px" y="0px"
	 viewBox="0 0 69.8 105" enable-background="new 0 0 69.8 105" xml:space="preserve">
<path fill="#252525" d="M69.8,37.8C69.8,17,54.1,0,34.9,0C15.6,0,0,17,0,37.8c0,16.9,10.5,31.9,25.6,36.4l0.4,0.1l-1.6,19.3
	c-0.2,2.9,0.8,5.9,2.8,8c2,2.1,4.9,3.4,7.8,3.4s5.7-1.2,7.8-3.4c2-2.1,3-5,2.8-8L44,74.4l0.4-0.1C59.3,69.7,69.8,54.7,69.8,37.8z
	 M39,98.4c-1,1.1-2.6,1.8-4.1,1.8c-1.6,0-3.1-0.7-4.1-1.8c-1.1-1.3-1.7-2.9-1.4-4.3l1.6-18.6l0.5,0.1c1.1,0.1,2.4,0.2,3.6,0.2
	c1.2,0,2.5-0.1,3.6-0.2l0.5-0.1l1.6,18.7C40.7,95.8,40.1,97.3,39,98.4z M34.9,70.8c-16.5,0-30-14.8-30-32.9
	c0-18.2,13.4-32.9,30-32.9s30,14.8,30,32.9C64.9,56,51.4,70.8,34.9,70.8z"/>
<path fill="#828282" d="M37.8,17.6C37.8,17.6,37.8,17.6,37.8,17.6c-0.7,0-1.2,0.3-1.6,0.7L18.5,36.1c-0.5,0.5-0.8,1.1-0.7,1.8
	c0,0.6,0.3,1.2,0.7,1.6c0.5,0.5,1,0.7,1.8,0.7s1.3-0.2,1.8-0.7l17.7-17.7c0.8-0.9,0.7-2.5-0.1-3.4C39.1,17.9,38.5,17.6,37.8,17.6z"
	/>
<path fill="#828282" d="M52.1,31.8c0-0.6-0.3-1.2-0.7-1.6c-1-0.9-2.6-0.9-3.6,0L42,36.1c-0.5,0.5-0.8,1.1-0.7,1.8
	c0,0.6,0.3,1.2,0.7,1.6c0.5,0.5,1,0.7,1.8,0.7s1.3-0.2,1.8-0.7l5.9-5.9C51.9,33.1,52.1,32.4,52.1,31.8z"/>
</svg>
