<?xml version="1.0" encoding="utf-8"?>
<!-- Generator: Adobe Illustrator 18.1.1, SVG Export Plug-In . SVG Version: 6.00 Build 0)  -->
<svg version="1.1" id="Layer_1" xmlns="http://www.w3.org/2000/svg" xmlns:xlink="http://www.w3.org/1999/xlink" x="0px" y="0px"
	 viewBox="0 0 48 48" enable-background="new 0 0 48 48" xml:space="preserve">
<g>
	<defs>
		<rect id="SVGID_1_" width="48" height="48"/>
	</defs>
	<clipPath id="SVGID_2_">
		<use xlink:href="#SVGID_1_"  overflow="visible"/>
	</clipPath>
	<path fill="#FFFFFF" clip-path="url(#SVGID_2_)" d="M19.7,26c-0.9,2.9-3.5,5-6.7,5s-5.8-2.1-6.7-5H2c-1.1,0-2-0.9-2-2c0-1.1,0.9-2,2-2h4.3
		c0.9-2.9,3.5-5,6.7-5s5.8,2.1,6.7,5H46c1.1,0,2,0.9,2,2c0,1.1-0.9,2-2,2H19.7z M28.3,39c0.9-2.9,3.5-5,6.7-5s5.8,2.1,6.7,5H46
		c1.1,0,2,0.9,2,2c0,1.1-0.9,2-2,2h-4.3c-0.9,2.9-3.5,5-6.7,5s-5.9-2.1-6.7-5H2c-1.1,0-2-0.9-2-2c0-1.1,0.9-2,2-2H28.3z M28.3,5
		c0.9-2.9,3.5-5,6.7-5s5.8,2.1,6.7,5H46c1.1,0,2,0.9,2,2c0,1.1-0.9,2-2,2h-4.3c-0.9,2.9-3.5,5-6.7,5s-5.9-2.1-6.7-5H2
		C0.9,9,0,8.1,0,7c0-1.1,0.9-2,2-2H28.3z M35,10c1.7,0,3-1.3,3-3c0-1.7-1.3-3-3-3c-1.7,0-3,1.3-3,3C32,8.7,33.3,10,35,10 M35,44
		c1.7,0,3-1.3,3-3s-1.3-3-3-3c-1.7,0-3,1.3-3,3S33.3,44,35,44 M13,21c-1.7,0-3,1.3-3,3c0,1.7,1.3,3,3,3s3-1.3,3-3
		C16,22.3,14.7,21,13,21"/>
</g>
</svg>
