<?xml version="1.0" encoding="utf-8"?>
<!-- Generator: Adobe Illustrator 18.1.1, SVG Export Plug-In . SVG Version: 6.00 Build 0)  -->
<svg version="1.1" id="Layer_1" xmlns="http://www.w3.org/2000/svg" xmlns:xlink="http://www.w3.org/1999/xlink" x="0px" y="0px"
	 viewBox="0 0 75.8 110.8" enable-background="new 0 0 75.8 110.8" xml:space="preserve">
<path fill="#3BBC6B" d="M73.3,40.3c0-20.9-15.6-37.8-34.9-37.8c-19.2,0-34.9,17-34.9,37.8c0,16.9,10.5,31.9,25.6,36.4l0.4,0.1
	l-1.6,19.3c-0.2,2.9,0.8,5.9,2.8,8c2,2.1,4.9,3.4,7.8,3.4s5.7-1.2,7.8-3.4c2-2.1,3-5,2.8-8l-1.6-19.3l0.4-0.1
	C62.8,72.2,73.3,57.2,73.3,40.3z M42.5,100.9c-1,1.1-2.6,1.8-4.1,1.8c-1.6,0-3.1-0.7-4.1-1.8c-1.1-1.3-1.7-2.9-1.4-4.3L34.4,78
	l0.5,0.1c1.1,0.1,2.4,0.2,3.6,0.2c1.2,0,2.5-0.1,3.6-0.2l0.5-0.1l1.6,18.7C44.2,98.3,43.6,99.8,42.5,100.9z M38.4,73.3
	c-16.5,0-30-14.8-30-32.9c0-18.2,13.4-32.9,30-32.9s30,14.8,30,32.9C68.4,58.5,54.9,73.3,38.4,73.3z"/>
<path fill="#3BBC6B" d="M41.3,20.1C41.3,20.1,41.3,20.1,41.3,20.1c-0.7,0-1.2,0.3-1.6,0.7L22,38.6c-0.5,0.5-0.8,1.1-0.7,1.8
	c0,0.6,0.3,1.2,0.7,1.6c0.5,0.5,1,0.7,1.8,0.7s1.3-0.2,1.8-0.7l17.7-17.7c0.8-0.9,0.7-2.5-0.1-3.4C42.6,20.4,42,20.1,41.3,20.1z"/>
<path fill="#3BBC6B" d="M55.6,34.3c0-0.6-0.3-1.2-0.7-1.6c-1-0.9-2.6-0.9-3.6,0l-5.9,5.9c-0.5,0.5-0.8,1.1-0.7,1.8
	c0,0.6,0.3,1.2,0.7,1.6c0.5,0.5,1,0.7,1.8,0.7s1.3-0.2,1.8-0.7l5.9-5.9C55.4,35.6,55.6,34.9,55.6,34.3z"/>
</svg>
