<?xml version="1.0" encoding="utf-8"?>
<!-- Generator: Adobe Illustrator 18.1.1, SVG Export Plug-In . SVG Version: 6.00 Build 0)  -->
<svg version="1.1" id="Layer_1" xmlns="http://www.w3.org/2000/svg" xmlns:xlink="http://www.w3.org/1999/xlink" x="0px" y="0px"
	 viewBox="0 0 86.6 86.6" enable-background="new 0 0 86.6 86.6" xml:space="preserve">
<g>
	<defs>
		<rect id="SVGID_1_" y="0" width="86.6" height="86.6"/>
	</defs>
	<clipPath id="SVGID_2_">
		<use xlink:href="#SVGID_1_"  overflow="visible"/>
	</clipPath>
	<path fill="#0DAC49" clip-path="url(#SVGID_2_)" d="M0,71.2C0,81,5.3,86.6,14.4,86.6h57.7c9.7,0,14.4-4.4,14.4-13.4V13.4C86.6,7.2,82.8,0,72.2,0
		H14.4c-0.1,0-0.1,0-0.2,0c-4.4,0-8,1.3-10.5,3.7C1.3,6.2,0,9.8,0,14.4V71.2z M4.5,15.9C4.5,8,8.3,4.5,16.9,4.5h53.8
		c8,0,11.4,3.7,11.4,12.4v35.4H70.6l-4.7,4.5L51,18.2L39.6,59.3L21.2,38.5l-6.9,13.8H4.5V15.9z M4.5,56.7h12.4l4.5-11.8l19.7,22.4
		l10.5-35.9l13.9,30.9l5.5-5.7l11.1,0.2v12.9c0,8.4-4.2,12.4-12.8,12.4H16.9c-8.2,0-12.4-4.2-12.4-12.4V56.7z"/>
</g>
</svg>
