<?xml version="1.0" encoding="utf-8"?>
<!-- Generator: Adobe Illustrator 18.1.1, SVG Export Plug-In . SVG Version: 6.00 Build 0)  -->
<svg version="1.1" id="Layer_1" xmlns="http://www.w3.org/2000/svg" xmlns:xlink="http://www.w3.org/1999/xlink" x="0px" y="0px"
	 viewBox="0 0 90.1 90.1" enable-background="new 0 0 90.1 90.1" xml:space="preserve">
<g>
	<defs>
		<rect id="SVGID_1_" y="0" width="90.1" height="90.1"/>
	</defs>
	<clipPath id="SVGID_2_">
		<use xlink:href="#SVGID_1_"  overflow="visible"/>
	</clipPath>
	<path fill="#0DAC49" clip-path="url(#SVGID_2_)" d="M52.1,45.1L88.7,8.5c1.9-1.9,1.9-5,0-7s-5-1.9-7,0L45.1,38.1L8.5,1.5c-1.9-1.9-5-1.9-7,0
		s-1.9,5,0,7l36.6,36.6L1.5,81.7c-1.9,1.9-1.9,5,0,7c1,1,2.2,1.4,3.5,1.4c1.3,0,2.5-0.5,3.5-1.4l36.6-36.6l36.6,36.6
		c1,1,2.2,1.4,3.5,1.4s2.5-0.5,3.5-1.4c1.9-1.9,1.9-5,0-7L52.1,45.1z"/>
</g>
</svg>
