<?xml version="1.0" encoding="utf-8"?>
<!-- Generator: Adobe Illustrator 18.1.1, SVG Export Plug-In . SVG Version: 6.00 Build 0)  -->
<svg version="1.1" id="Layer_1" xmlns="http://www.w3.org/2000/svg" xmlns:xlink="http://www.w3.org/1999/xlink" x="0px" y="0px"
	 viewBox="0 0 81.5 80.7" enable-background="new 0 0 81.5 80.7" xml:space="preserve">
<g transform="translate(0,-952.36218)">
	<path fill="#252525" stroke="#252525" stroke-miterlimit="10" d="M33,954.4c-17.1,0-31,13.9-31,31c0,17.1,13.9,31,31,31
		c7.5,0,14.3-2.6,19.7-7.1h0l22.2,22.2c1.2,1.2,3.1,1.2,4.2,0c1.2-1.2,1.2-3,0-4.2l-22.2-22.2c0,0,0,0,0,0
		c4.4-5.4,7.1-12.2,7.1-19.7C64,968.3,50.1,954.4,33,954.4L33,954.4z M33,960.4c13.8,0,25,11.2,25,25c0,13.8-11.2,25-25,25
		c-13.8,0-25-11.2-25-25C8,971.5,19.2,960.4,33,960.4z"/>
</g>
</svg>
