<?xml version="1.0" encoding="utf-8"?>
<!-- Generator: Adobe Illustrator 18.1.1, SVG Export Plug-In . SVG Version: 6.00 Build 0)  -->
<svg version="1.1" id="Layer_1" xmlns="http://www.w3.org/2000/svg" xmlns:xlink="http://www.w3.org/1999/xlink" x="0px" y="0px"
	 viewBox="0 0 86.3 74.7" enable-background="new 0 0 86.3 74.7" xml:space="preserve">
<g>
	<defs>
		<rect id="SVGID_1_" width="86.3" height="74.7"/>
	</defs>
	<clipPath id="SVGID_2_">
		<use xlink:href="#SVGID_1_"  overflow="visible"/>
	</clipPath>
	<path fill="#F50C53" clip-path="url(#SVGID_2_)" d="M43.2,74.7l-37.1-37c-8.5-9-8-23.2,0.9-31.7C11.2,2.2,16.6,0,22.3,0c6.2,0,12.1,2.6,16.3,7
		l4.5,4.8L47.7,7C51.9,2.6,57.8,0,64,0c5.7,0,11.1,2.2,15.3,6.1c9,8.5,9.4,22.6,1,31.6L43.2,74.7z M22.3,4c-4.7,0-9.1,1.8-12.6,5
		C2.4,15.9,2,27.6,9,34.9L43.2,69l34.3-34.2c6.9-7.3,6.5-19-0.9-25.9C73.1,5.8,68.7,4,64,4c-5.1,0-9.9,2.1-13.4,5.8l-7.4,7.9
		l-7.4-7.9C32.2,6.1,27.5,4,22.3,4"/>
</g>
</svg>
